# xmcd
#
# Track frame offsets: 
#        150
#        20922
#        42594
#        57017
#        68372
#        96356
#        115577
#        128972
#        149984
#        163602
#        183328
#        209817
#        225145
#        240085
#        262234
#        275992
#        295673
#        316977
#        329605
#
# Disc length: 4656 seconds
#
# Revision: 3
# Processed by: cddbd v1.5.2PL0 Copyright (c) Steve Scherf et al.
# Submitted via: ExactAudioCopy v1.0b4
#
DISCID=26122e13
DTITLE=Various Artist - Blues News - Bluesnews Collection Vol. 8
DYEAR=2013
DGENRE=Blues
TTITLE0=Jan Luley - Jan Luley - Larry's Groove
TTITLE1=The Almost Three - The Almost Three - I Did It
TTITLE2=Miristics - Miristics - Candies
TTITLE3=Andi Saitenhieb - Andi Saitenhieb - Total tierisch
TTITLE4=Van Blue Music featuring Christian Hönninger - Van Blue Music 
TTITLE4=featuring Christian Hönninger - Old Love
TTITLE5=Professor Bottleneck And The Juke Kings - Professor Bottleneck
TTITLE5=And The Juke Kings - Why You Why Me
TTITLE6=Alwin Schönberger - Alwin Schönberger - Hesitation Blues
TTITLE7=Matt And The Strangers - Matt And The Strangers - Looking For 
TTITLE7=My Baby
TTITLE8=GProject Blues Band - GProject Blues Band - Downtown
TTITLE9=2nd Bridge Blues Band - 2nd Bridge Blues Band - Ü40 Blues
TTITLE10=Schwarzbrenner - Schwarzbrenner - Der Himmel wird so schwarz
TTITLE11=Twofold Bases - Twofold Bases - Some Kind Of Pressure
TTITLE12=Larry Watkins and Greyhound Blues Band - Larry Watkins and Greyho
TTITLE12=und Blues Band - Before You Accuse Me
TTITLE13=Hanno-Bruhn-Gang - Hanno-Bruhn-Gang - Am 9ten November 89
TTITLE14=Blues Himmel - Blues Himmel - Zu schpät (aka Zu spät)
TTITLE15=Intoxigation Rhythm'n'Blues - Intoxigation Rhythm'n'Blues - N
TTITLE15=ext Passing Train
TTITLE16=Johann Nepomuck Band - Johann Nepomuck Band - I've Been Drivi
TTITLE16=ng
TTITLE17=Blue Chilis - Blue Chilis - Voodoo Magic
TTITLE18=Making Blues - Making Blues - Blue Skies
EXTD=
EXTT0=
EXTT1=
EXTT2=
EXTT3=
EXTT4=
EXTT5=
EXTT6=
EXTT7=
EXTT8=
EXTT9=
EXTT10=
EXTT11=
EXTT12=
EXTT13=
EXTT14=
EXTT15=
EXTT16=
EXTT17=
EXTT18=
PLAYORDER=
